<svg width="45" height="45" viewBox="0 0 45 45" fill="none" xmlns="http://www.w3.org/2000/svg">
<path d="M20.5 29.0416C20.5 29.8701 21.1716 30.5416 22 30.5416C22.8284 30.5416 23.5 29.8701 23.5 29.0416H20.5ZM23.0607 3.93934C22.4749 3.35356 21.5251 3.35356 20.9393 3.93934L11.3934 13.4853C10.8076 14.0711 10.8076 15.0208 11.3934 15.6066C11.9792 16.1924 12.9289 16.1924 13.5147 15.6066L22 7.12132L30.4853 15.6066C31.0711 16.1924 32.0208 16.1924 32.6066 15.6066C33.1924 15.0208 33.1924 14.0711 32.6066 13.4853L23.0607 3.93934ZM23.5 29.0416V5H20.5V29.0416H23.5Z" fill="#E0E0E0"/>
<path d="M5.5 29V37C5.5 37.5523 5.94772 38 6.5 38H38.5C39.0523 38 39.5 37.5523 39.5 37V29" stroke="#E0E0E0" stroke-width="3" stroke-linecap="round"/>
</svg>
